<?xml version="1.0" encoding="UTF-8" standalone="no"?>
<!-- Created with Inkscape (http://www.inkscape.org/) -->

<svg
   width="232.73415mm"
   height="232.73415mm"
   viewBox="0 0 232.73415 232.73415"
   version="1.1"
   id="svg1"
   xml:space="preserve"
   inkscape:version="1.4.2 (f4327f4, 2025-05-13)"
   sodipodi:docname="funke_logo_yellow_bg.svg"
   xmlns:inkscape="http://www.inkscape.org/namespaces/inkscape"
   xmlns:sodipodi="http://sodipodi.sourceforge.net/DTD/sodipodi-0.dtd"
   xmlns="http://www.w3.org/2000/svg"
   xmlns:svg="http://www.w3.org/2000/svg"><sodipodi:namedview
     id="namedview1"
     pagecolor="#505050"
     bordercolor="#ffffff"
     borderopacity="1"
     inkscape:showpageshadow="0"
     inkscape:pageopacity="0"
     inkscape:pagecheckerboard="1"
     inkscape:deskcolor="#d1d1d1"
     inkscape:document-units="mm"
     inkscape:zoom="0.91402579"
     inkscape:cx="398.23822"
     inkscape:cy="545.38943"
     inkscape:window-width="2880"
     inkscape:window-height="1711"
     inkscape:window-x="-9"
     inkscape:window-y="-9"
     inkscape:window-maximized="1"
     inkscape:current-layer="layer1" /><defs
     id="defs1"><style
       id="style1">
      .cls-1 {
        fill: #000;
        stroke-width: 0px;
      }
    </style></defs><g
     inkscape:label="Layer 1"
     inkscape:groupmode="layer"
     id="layer1"
     transform="translate(11.367073,-32.132927)"><circle
       style="fill:#ffff23;fill-opacity:1;stroke:#000000;stroke-width:0;stroke-linecap:round;stroke-linejoin:round;stroke-dasharray:none"
       id="path2"
       cx="105"
       cy="148.5"
       r="116.36707" /><path
       class="cls-1"
       d="m 108.23012,54.816503 c 0.67238,0.156293 1.36755,0.249091 2.01227,0.483531 1.67852,0.610519 2.72536,1.847838 3.3603,3.497052 0.82216,2.134375 -0.35166,5.227671 -2.10833,6.365679 -0.64634,0.418409 -0.59424,1.098934 -0.62029,1.660611 -0.083,1.761551 -0.0407,3.531242 -0.0358,5.296049 0,0.267 0.0684,0.532372 0.0977,0.799373 0.0602,0.577958 0.38748,0.877519 0.89869,1.172196 1.29756,0.748903 2.10995,1.893423 2.83932,3.239821 0.78635,1.452221 0.69843,2.948399 0.57144,4.343639 -0.11885,1.295928 -0.6789,2.717216 -1.81039,3.640322 -0.85473,0.698433 -1.8169,1.263366 -2.70908,1.917842 -0.18234,0.133501 -0.36631,0.398873 -0.3777,0.612148 -0.1563,2.967936 -0.24584,5.940756 0.68215,8.817526 0.21979,0.680523 0.59098,1.344768 1.0273,1.914585 0.62843,0.818905 1.35616,1.566193 2.08065,2.306943 1.19498,1.22104 2.4323,2.43231 3.29028,3.89755 0.44283,0.75542 0.4233,1.79574 0.56331,2.71396 0.26863,1.76318 0.0326,3.528 -0.58121,5.14464 -0.43632,1.14778 -1.37245,2.11158 -2.12787,3.12586 -0.28328,0.38096 -0.73099,0.63982 -1.01591,1.02079 -0.14814,0.19699 -0.16768,0.54702 -0.13349,0.8124 0.0944,0.71307 0.14327,1.46036 0.40865,2.1132 0.31258,0.77008 0.85634,1.44408 1.25685,2.18322 0.20025,0.36956 0.29141,0.79611 0.44934,1.19173 0.24747,0.62029 0.4819,1.24872 0.76843,1.8511 0.51773,1.08916 1.0908,2.11158 1.87226,3.08352 0.55842,0.69356 1.24384,1.32524 1.71434,2.07739 0.58773,0.93776 0.94916,2.0139 1.4506,3.00864 0.31096,0.61704 0.69192,1.19987 1.06311,1.78435 0.11396,0.17909 0.2784,0.41841 0.4526,0.44934 1.19825,0.21652 1.78597,1.14289 2.47138,1.98621 0.17095,0.21003 0.54214,0.29143 0.83682,0.35655 0.60238,0.13351 1.22103,0.19537 1.82341,0.3305 0.2263,0.0505 0.57145,0.17909 0.61378,0.337 0.26049,0.98498 1.15428,0.95892 1.84947,1.26825 0.1921,0.0846 0.4412,0.30282 0.45911,0.48028 0.12047,1.19173 0.48352,2.24997 1.068,3.32937 0.84007,1.5499 1.30895,3.29679 2.06599,4.8988 0.61215,1.2943 0.90846,2.8149 2.46161,3.6159 -0.33375,0.2035 -0.50469,0.3077 -0.81077,0.49492 -0.79937,-0.98985 -1.58409,-1.96017 -2.44858,-3.03143 -0.031,0.0684 -0.11722,0.25724 -0.22304,0.49331 -0.62843,-0.91985 -1.18034,-1.72899 -1.71271,-2.50721 -0.22631,0.36469 0.65447,4.89393 1.21452,5.90658 -0.43469,-0.21817 -0.34189,-0.26701 -1.35942,-2.23044 -0.44282,-0.85309 -0.871,-1.58897 -0.84659,-2.59674 0.0228,-0.91333 -0.1921,-1.83155 -0.30119,-2.74815 -0.1107,0 -0.22141,0 -0.33211,0 -0.0277,0.98009 -0.0505,1.96018 -0.0879,2.94027 -0.01,0.26048 -0.12048,0.52585 -0.0895,0.77657 0.10583,0.86613 0.26375,1.72411 0.3826,2.58861 0.0456,0.33863 0.039,0.68377 0.0635,1.14289 -0.25397,-0.12211 -0.41841,-0.27188 -0.55843,-0.25235 -0.19862,0.0293 -0.48027,0.14002 -0.54539,0.29305 -0.1742,0.40864 -0.25072,0.85798 -0.56493,1.31546 -0.0602,-0.19699 -0.18722,-0.39887 -0.17258,-0.58935 0.1628,-2.11158 0.35003,-4.22153 0.52586,-6.3315 0.10582,-1.26987 0.64145,-2.57719 0.031,-3.80149 -0.53237,-1.06637 -0.74565,-2.06925 -0.0749,-3.18446 -0.11397,-0.0439 -0.22794,-0.0879 -0.34353,-0.13188 -0.16931,0.24584 -0.44446,0.47703 -0.48515,0.74402 -0.0797,0.52098 -0.36305,0.63168 -0.78799,0.5454 -0.45259,-0.0912 -1.14614,-1.2243 -1.11195,-1.71272 0.0277,-0.3956 0.007,-0.79286 0.007,-1.19009 -0.0863,-0.0114 -0.1742,-0.0212 -0.26048,-0.0326 -0.11723,0.25561 -0.24585,0.50633 -0.35004,0.76682 -0.0993,0.24583 -0.17257,0.50144 -0.30282,0.88729 -0.71634,-0.38423 -1.37733,-0.74077 -2.06762,-1.11197 -0.096,-0.59586 -0.20026,-1.24219 -0.30607,-1.88853 -0.11234,-0.0163 -0.2263,-0.0326 -0.33864,-0.0472 -0.16443,0.43958 -0.32886,0.87752 -0.55191,1.47339 -0.63168,-0.5747 -1.44407,-1.00776 -1.74038,-1.672 -0.28165,-0.63006 -0.026,-1.50271 0,-2.26788 0.007,-0.17095 0.0439,-0.34189 0.0667,-0.51284 -0.0846,-0.0391 -0.16932,-0.0781 -0.25397,-0.11722 -0.14002,0.26211 -0.27352,0.52912 -0.42167,0.78635 -0.1335,0.23281 -0.28654,0.45422 -0.4298,0.68216 -0.27514,-0.28654 -0.65774,-0.52749 -0.80589,-0.86938 -0.48841,-1.13313 -0.21328,-2.30207 -0.0179,-3.45636 0.0113,-0.0684 -0.0326,-0.1449 -0.0781,-0.32236 -0.30281,0.54703 -0.56819,1.02405 -0.85798,1.54665 -0.93776,-0.40212 -1.27313,-1.08102 -1.34803,-1.9797 -0.0635,-0.76356 -0.20351,-1.52061 -0.33537,-2.46162 -0.2084,0.39074 -0.36469,0.68541 -0.58448,1.09894 -1.98133,-1.41478 -1.08103,-3.45147 -1.2829,-5.30745 -0.32398,0.54052 -0.64633,1.0794 -0.98659,1.64759 -0.19699,-0.12536 -0.42329,-0.34514 -0.68704,-0.41515 -0.21816,-0.0586 -0.53563,-0.0113 -0.71146,0.12047 -0.12536,0.0944 -0.18722,0.45423 -0.10908,0.61053 0.41027,0.81239 0.0846,1.62967 0.0895,2.4437 0.003,0.57633 0.0684,1.15103 0.0635,1.72736 -0.005,0.69192 0.002,1.39361 -0.0993,2.07413 -0.0993,0.6675 -0.0618,1.24546 0.12861,1.92598 0.2263,0.80915 -0.003,1.74854 -0.0554,2.63094 -0.0293,0.50795 -0.13188,1.01427 -0.14165,1.5206 -0.0179,0.8824 0.18561,1.81038 -0.0228,2.63906 -0.28491,1.13476 0.0456,2.15392 0.14815,3.22843 0.0456,0.47377 -0.16281,0.96543 -0.20514,1.45385 -0.0342,0.39236 -0.008,0.79449 0.0196,1.18848 0.0586,0.85798 0.37608,1.78922 0.14328,2.55441 -0.32073,1.05335 -0.21166,2.01226 -0.0423,3.01515 0.13838,0.81891 0.23281,1.59874 -0.18072,2.40788 -0.17094,0.33376 -0.0228,0.85961 0.0538,1.28454 0.19048,1.05009 0.53237,2.02855 0.007,3.15353 -0.26212,0.56005 0.0749,1.41803 0.19537,2.13112 0.13676,0.8189 0.3191,1.58246 -0.18885,2.39649 -0.19863,0.31746 -0.0277,0.96381 0.14652,1.39198 0.3598,0.88566 0.1335,1.66387 -0.14001,2.50883 -0.16118,0.49818 -0.2263,1.16732 -0.0196,1.6134 0.40702,0.88241 0.31095,1.67851 -0.0391,2.48766 -0.28003,0.64958 0.0407,0.89705 0.534,1.2422 0.98171,0.68541 1.9276,1.43757 2.79373,2.263 0.23932,0.22792 0.10581,0.81727 0.21164,1.22266 0.0944,0.36306 0.18234,0.83194 0.44283,1.03055 1.15104,0.87752 2.36556,1.66876 3.55079,2.49905 1.46687,1.02731 2.91258,2.08717 4.39898,3.0868 1.62154,1.09242 3.28867,2.11809 4.91835,3.19912 0.97683,0.64796 1.91785,1.35128 2.88328,2.01878 1.56455,1.0794 3.12748,2.15879 4.70506,3.21865 1.0794,0.72449 2.1653,1.4392 3.28215,2.10019 0.33863,0.20025 0.89868,0.40538 1.17708,0.26211 1.13638,-0.58447 2.01227,-0.0863 2.90933,0.48842 0.20187,0.12862 0.40539,0.25398 0.74565,0.46562 -0.0146,-0.27025 0.0325,-0.46074 -0.0423,-0.55516 -0.17094,-0.21491 -0.57632,-0.38422 -0.57469,-0.56819 0.003,-0.46074 0.13675,-0.93613 0.30444,-1.37245 0.14815,-0.38585 0.4526,-0.70983 0.61215,-1.09242 0.0781,-0.18722 -0.0163,-0.44772 -0.0326,-0.67402 -0.20024,0.0895 -0.42003,0.14978 -0.5926,0.27678 -0.12047,0.0879 -0.1742,0.26699 -0.35329,0.56492 -0.43957,-0.89216 -0.49167,-1.61664 -0.3077,-2.27926 0.17095,-0.61378 0.58284,-1.16243 0.88729,-1.73876 -0.10583,-0.0733 -0.21002,-0.14653 -0.31584,-0.21816 -0.4119,0.41353 -0.8238,0.82705 -1.20802,1.2129 -1.1201,-1.52548 -0.0521,-2.80676 0.35655,-4.14827 -0.0749,-0.0522 -0.14978,-0.1042 -0.22468,-0.1563 -0.21001,0.20676 -0.41841,0.41516 -0.63168,0.62029 -0.15955,0.15466 -0.32562,0.30281 -0.48842,0.4526 -0.14652,-0.18234 -0.43957,-0.38911 -0.41352,-0.54051 0.1449,-0.83194 0.37933,-1.64922 0.55842,-2.47627 0.0456,-0.21328 0.007,-0.44609 0.007,-0.66913 l -0.26212,-0.026 c -0.22955,0.28816 -0.4591,0.57796 -0.69029,0.86612 -0.49004,-0.42167 -0.69354,-1.68829 -0.36142,-2.18484 0.76355,-1.14453 0.82379,-1.31059 0.74076,-2.2223 -0.30607,0.32073 -0.55191,0.57796 -0.83682,0.87753 -0.4233,-0.60075 -0.38259,-1.10707 0.057,-1.64759 0.28002,-0.34352 0.76193,-0.68541 0.16117,-1.49455 -0.17582,0.31584 -0.3142,0.5633 -0.44282,0.79612 -0.6089,-0.12536 -0.8417,-0.4933 -0.79613,-1.03869 0.0782,-0.95242 -0.19048,-1.68179 -0.99798,-2.30696 -0.44284,-0.34351 -0.65774,-1.01427 -0.89869,-1.57106 -0.26211,-0.60564 -0.43469,-1.24872 -0.52586,-1.95204 0.2149,0.337 0.4298,0.67401 0.64308,1.01265 0.0602,0 0.12048,0 0.18072,0 -0.10257,-1.07777 -0.20351,-2.15391 -0.30608,-3.23168 0.0765,-0.0196 0.15304,-0.0391 0.22793,-0.0602 0.44282,0.76355 0.88565,1.52548 1.36919,2.35742 0.19048,-0.16769 0.27676,-0.2605 0.3777,-0.32887 0.15956,-0.10745 0.37771,-0.31584 0.48354,-0.27351 0.18234,0.0749 0.35329,0.28979 0.43143,0.48516 0.14978,0.37607 0.23118,0.77983 0.34189,1.17057 l 0.33863,-0.0212 c 0.0522,-0.38748 0.1628,-0.77984 0.14165,-1.16243 -0.0521,-0.94265 1.40663,-2.82792 2.33788,-2.94677 0.0977,-0.013 0.20676,0.0505 0.4298,0.10908 -0.31421,0.44608 -0.62843,0.82867 -0.87101,1.25359 -0.20839,0.36306 -0.33863,0.7717 -0.49492,1.16244 -0.52261,1.30894 -0.94428,2.60325 -0.34515,4.03593 0.18235,0.43469 0.0423,1.00125 0.0716,1.50595 0.0196,0.34189 0.1042,0.68052 0.11397,1.02242 0.013,0.43305 -0.0554,0.86937 -0.0228,1.29918 0.0244,0.31421 0.16118,0.61865 0.23606,0.92962 0.10582,0.43469 0.25886,0.86612 0.29142,1.30732 0.0782,1.04521 0.0895,2.09693 0.14978,3.14376 0.0114,0.20351 0.0717,0.46401 0.20839,0.59099 0.59261,0.54865 0.57634,1.26012 0.66263,1.97483 0.0521,0.41841 0.30118,0.81565 0.4705,1.21777 0.24746,0.58285 0.51935,1.15267 0.7489,1.74201 0.15955,0.41027 0.24909,0.84822 0.39725,1.265 0.16443,0.464 0.40212,0.90683 0.53074,1.37896 0.47213,1.72248 1.00287,3.41565 1.92924,4.96393 0.40376,0.67564 0.17908,1.26825 -0.32887,1.81854 -0.16606,0.17908 -0.2149,0.46724 -0.31747,0.70493 0.22467,-0.096 0.44446,-0.25397 0.67565,-0.27351 0.23118,-0.0179 0.67563,0.0879 0.68052,0.16282 0.0439,0.66912 0.0977,1.35942 -0.0244,2.01063 -0.0993,0.534 -0.43469,1.02405 -0.66587,1.532 0.13838,0.10744 0.27676,0.21654 0.41515,0.32398 0.13676,-0.47865 0.27352,-0.95566 0.39073,-1.3643 1.19662,0.82216 2.0025,1.38058 2.81491,1.93249 1.3008,0.88403 2.61138,1.75178 3.90243,2.65046 0.70169,0.48842 1.37408,1.01754 2.04483,1.54991 0.0928,0.0733 0.13675,0.26375 0.13513,0.39888 -0.0538,2.37369 -0.12211,4.74739 -0.17908,7.12272 -0.0505,2.10669 -0.10746,4.21176 -0.13025,6.31847 -0.0244,2.3395 -0.0179,4.68063 -0.013,7.02014 0,0.32073 0.12211,0.64308 0.10257,0.96055 -0.0293,0.47214 -0.17908,0.93776 -0.19537,1.40827 -0.0195,0.57307 -0.29304,0.8124 -0.81076,1.02567 -1.6541,0.68378 -3.26425,1.4685 -5.09906,1.57758 -0.35165,0.0212 -0.69192,0.22304 -1.04032,0.33375 -2.04809,0.65611 -4.09293,1.32361 -6.14915,1.95529 -0.81566,0.25072 -1.65735,0.41352 -2.48441,0.63168 -1.4457,0.38259 -2.89629,0.75054 -4.33061,1.17545 -1.27965,0.37934 -2.53325,0.84334 -3.80638,1.24221 -1.06962,0.33537 -2.15554,0.62355 -3.23005,0.94426 -2.17996,0.65285 -4.35015,1.33827 -6.53826,1.96507 -1.68991,0.48515 -3.41402,0.84821 -5.09253,1.36593 -1.36431,0.42003 -2.41766,-0.17094 -3.49706,-0.81078 -0.80426,-0.47701 -1.56293,-1.10055 -2.43068,-1.38383 -0.89054,-0.2898 -1.69642,-0.63331 -2.40138,-1.23895 -0.86938,-0.74564 -1.93086,-0.43794 -2.92072,-0.52912 -0.32072,-0.0293 -0.63005,-0.23281 -0.94589,-0.23281 -0.87589,0 -1.51083,-0.90356 -2.52348,-0.53237 -0.73262,0.26701 -1.44571,0.13839 -2.05297,-0.65121 -0.52912,-0.68542 -1.33988,-1.30408 -2.153912,-1.58736 -1.177083,-0.40864 -1.501064,-1.19662 -1.434314,-2.23042 0.04886,-0.75542 -0.403758,-1.07452 -0.893797,-1.36269 -1.181966,-0.69518 -2.383467,-1.35942 -3.601249,-1.98947 -1.012648,-0.52424 -2.059484,-0.98497 -3.093296,-1.47176 -0.04722,-0.0228 -0.130244,-0.003 -0.154665,-0.0343 -0.68541,-0.90356 -1.789228,-1.11521 -2.70582,-1.63456 -1.066373,-0.604 -2.140887,-1.19173 -3.213772,-1.78434 -1.833185,-1.01428 -3.640321,-2.07739 -5.507695,-3.02655 -2.280899,-1.15917 -4.61064,-2.22391 -6.928984,-3.30982 -0.14978,-0.07 -0.444458,-0.0342 -0.563305,0.0733 -0.657733,0.59098 -1.271508,0.38259 -1.935753,0.013 -0.683781,-0.38259 -1.372446,-0.79449 -2.113208,-1.02404 -0.740764,-0.22956 -0.818911,-0.76193 -0.89543,-1.34477 -0.03256,-0.25236 0.123733,-0.61703 0,-0.75217 -0.312585,-0.34188 -0.719598,-0.60726 -1.116841,-0.86123 -0.698435,-0.44608 -1.414777,-0.86449 -2.127863,-1.28453 -0.402128,-0.2377 -0.814025,-0.46237 -1.224294,-0.68541 -0.14164,-0.0766 -0.306073,-0.11559 -0.441201,-0.20351 -0.962179,-0.62028 -1.898308,-1.28453 -2.884906,-1.85923 -0.519349,-0.30282 -1.144521,-0.41678 -1.688288,-0.68216 -0.560051,-0.27351 -1.079398,-0.63168 -1.619911,-0.94426 -0.654476,-0.37771 -1.313837,-0.74728 -2.152283,-1.22592 1.644332,-0.55354 3.063992,-1.04358 4.491792,-1.51084 3.125857,-1.02404 6.253342,-2.03994 9.382455,-3.05259 4.446207,-1.4392 8.897297,-2.86374 13.340246,-4.3127 4.125481,-1.34478 8.246077,-2.71071 12.368301,-4.06688 0.205135,-0.0667 0.441202,-0.083 0.617032,-0.19537 1.714337,-1.08591 3.046082,-0.2149 4.480396,0.71635 2.697675,1.75015 5.476755,3.37332 8.223275,5.04533 0.2263,0.13838 0.46726,0.25234 0.71146,0.38259 0.27026,-0.94427 0.16607,-1.22755 -0.68378,-1.74853 -2.5772,-1.57921 -5.10882,-3.24634 -7.764171,-4.6839 -1.540134,-0.83357 -2.095299,-1.79899 -2.054598,-3.5931 0.1335,-5.9082 0.03744,-11.82291 0.03093,-17.73436 -0.0033,-2.58372 0,-5.16744 0,-7.95466 2.316715,1.52874 4.573199,3.01678 6.893169,4.54877 0.29956,-1.03381 0.58773,-2.02529 0.87752,-3.02492 -0.73262,-0.28979 -0.86613,-0.62679 -0.58935,-1.46198 0.10907,-0.3305 0.23606,-0.68705 0.2149,-1.02404 -0.0635,-1.06964 0.50795,-1.76481 1.26499,-2.38347 0.11396,-0.0928 0.1742,-0.25398 0.25886,-0.3826 -0.0391,-0.083 -0.0766,-0.16442 -0.11559,-0.24746 -0.27025,0.11885 -0.54865,0.21979 -0.80588,0.36143 -0.19211,0.10746 -0.35655,0.26863 -0.53238,0.40539 -0.10745,-0.14653 -0.27839,-0.28003 -0.31421,-0.44284 -0.2149,-0.96054 0.031,-2.78234 1.08916,-3.47914 0.23282,-0.15304 0.51935,-0.67239 0.45097,-0.75867 -0.34351,-0.42818 -0.6447,-0.0635 -0.93124,0.17909 -0.0602,0.0505 -0.13838,0.0781 -0.2898,0.1628 -0.45422,-0.80263 -0.20187,-1.59061 0.16118,-2.24996 0.35817,-0.65285 0.9573,-1.1722 1.4506,-1.75016 -0.0766,-0.0912 -0.15304,-0.18235 -0.22956,-0.27351 -0.47864,0.22141 -0.95892,0.44282 -1.71434,0.79123 0.0846,-1.05498 0.0131,-1.97808 0.267,-2.80024 0.24259,-0.77985 0.82705,-1.45223 1.26174,-2.17183 -0.0554,-0.0585 -0.11233,-0.11722 -0.16768,-0.17582 -0.34841,0.15466 -0.69681,0.30932 -1.09406,0.48678 0.0505,-0.93776 0.0196,-1.83644 0.18397,-2.69768 0.0716,-0.37282 0.55517,-0.66424 0.8417,-1.00125 0.17421,-0.20514 0.35004,-0.41352 0.4754,-0.64796 0.0244,-0.0439 -0.24421,-0.32724 -0.27839,-0.30933 -0.25561,0.13512 -0.4868,0.31909 -0.72775,0.48516 -0.0407,0.0293 -0.0912,0.0439 -0.13839,0.0651 -0.47701,-0.61052 -0.48515,-2.16368 0.003,-2.70094 0.28978,-0.3191 0.64144,-0.58284 0.91171,-0.91659 0.13838,-0.17094 0.15791,-0.43958 0.23118,-0.66425 -0.2556,0 -0.52424,-0.0456 -0.76193,0.0195 -0.18723,0.0505 -0.33701,0.2377 -0.50796,0.36957 -0.48841,-0.80915 -0.36468,-1.79411 0.25724,-2.32323 0.0407,-0.0342 0.1156,-0.0439 0.13513,-0.0846 0.14652,-0.30606 0.28328,-0.6154 0.42329,-0.92473 -0.2963,-0.0961 -0.59261,-0.19211 -1.02567,-0.33212 -0.14327,-1.00288 -0.54703,-2.14251 0.72448,-3.02166 0.34678,-0.23932 0.50307,-0.75542 0.74565,-1.14289 -0.45911,0.0326 -0.91822,0.0651 -1.44245,0.10256 -0.47214,-0.77495 -0.2784,-1.75014 0.53888,-2.52022 0.44446,-0.41841 1.16731,-0.64959 1.08266,-1.70457 -0.37445,0.23933 -0.64635,0.4233 -0.92962,0.59098 -0.17583,0.1042 -0.36632,0.18235 -0.55028,0.27189 -0.0928,-0.19699 -0.21816,-0.38748 -0.27189,-0.59424 -0.18723,-0.72447 0.0749,-1.27313 0.61215,-1.78922 0.71959,-0.6903 1.36268,-1.462 2.17833,-2.35254 -1.49618,-0.28816 -1.602,1.25848 -2.66187,1.40664 -0.32723,-0.24584 -0.53562,-0.59425 -0.4591,-1.24709 0.1335,-1.13964 0.36956,-2.15717 1.31872,-2.91258 0.14815,-0.11722 0.13025,-0.44283 0.19048,-0.67076 -0.057,-0.0375 -0.11559,-0.0765 -0.17257,-0.11396 -0.36794,0.23118 -0.73588,0.46237 -1.25686,0.78797 v -2.68465 c -0.083,-0.0358 -0.16606,-0.07 -0.25072,-0.10583 -0.28165,0.35817 -0.57308,0.70983 -0.8417,1.0794 -0.20513,0.28165 -0.33538,0.63494 -0.57959,0.871 -0.75541,0.731 -1.12987,1.602 -1.21777,2.64233 -0.0228,0.28165 -0.25398,0.58285 -0.46563,0.80426 -0.78472,0.82379 -1.558043,1.62316 -1.802254,2.81815 -0.08303,0.40376 -0.4412,0.91334 -0.802625,1.06475 -0.869382,0.36142 -1.194991,1.15591 -1.357796,1.84621 -0.424922,1.81691 -1.641075,3.09655 -2.648838,4.53737 -0.37608,0.53889 -0.507952,1.2422 -0.843331,1.8169 -0.441201,0.75379 -0.996366,1.43921 -1.461989,2.17996 -0.420037,0.66914 -0.962178,1.33176 -1.131495,2.07089 -0.20839,0.91333 -0.573075,1.50106 -1.388728,1.98622 -0.46725,0.2784 -0.807513,0.9231 -1.001251,1.47339 -0.341891,0.97032 -0.573074,1.98133 -1.45222,2.63418 -0.556794,0.41352 -0.761928,0.97846 -0.93613,1.61503 -0.255604,0.93288 -0.690294,1.75993 -1.39524,2.49255 -0.548652,0.57143 -0.853098,1.38384 -1.234062,2.10669 -0.30933,0.58773 -0.56819,1.2015 -0.853098,1.80388 -0.05698,0.12048 -0.09768,0.29305 -0.195367,0.34189 -1.074513,0.5454 -1.196617,1.63294 -1.584093,2.60162 -0.29142,0.72938 -0.6675,1.58573 -1.271507,1.99274 -0.955666,0.64309 -1.481527,1.58735 -1.738758,2.49743 -0.286536,1.0159 -1.033813,1.53199 -1.536879,2.29392 0.584469,0.46888 0.266999,0.9687 -0.04722,1.37409 -0.589355,0.76029 -1.284533,1.43756 -1.872259,2.19949 -0.332123,0.43142 -0.615403,0.93612 -0.778208,1.45222 -0.156293,0.49981 0.229555,0.70495 0.674013,0.59749 0.833562,-0.20025 1.665496,-0.42004 2.473009,-0.70332 1.046837,-0.36794 2.065996,-0.81403 3.103064,-1.2129 2.476265,-0.95403 4.95253,-1.90807 7.435307,-2.84582 2.142515,-0.80914 4.285029,-1.62318 6.450337,-2.36882 0.563305,-0.19374 1.21127,-0.13838 1.895051,-0.20514 0.04396,0.97521 0.110707,1.8283 0.117219,2.68141 0.06186,8.46423 0.09768,16.92846 0.187226,25.39107 0.0098,0.85798 -0.196994,1.25685 -1.054977,1.53037 -5.097426,1.61991 -10.173688,3.30331 -15.253206,4.97369 -5.465366,1.79737 -10.927475,3.60451 -16.392842,5.40513 -2.849088,0.93776 -5.694921,1.88365 -8.552149,2.79048 -0.467251,0.14816 -0.991483,0.11885 -1.577582,0.18072 0,-2.27602 0.01953,-4.41039 -0.0065,-6.54314 -0.01953,-1.66712 -0.12536,-3.33424 -0.1335,-5.003 -0.0098,-1.74202 0.08954,-3.48565 0.07001,-5.2293 -0.03093,-2.55604 -0.138385,-5.11208 -0.18397,-7.66812 -0.01465,-0.83519 0.01791,-1.68014 0.12536,-2.50719 0.03907,-0.29794 0.304446,-0.71472 0.564933,-0.81077 1.562929,-0.57471 3.168187,-1.03056 4.729488,-1.60364 1.984593,-0.72774 3.94151,-1.52873 5.911451,-2.29717 0.223044,-0.0863 0.462367,-0.13351 0.674014,-0.24096 0.555165,-0.28003 1.269879,-0.45096 1.611769,-0.90194 0.859611,-1.13149 2.160424,-1.33988 3.308199,-1.87876 0.07163,-0.0343 0.141641,-0.0684 0.286537,-0.32399 -0.227927,-0.0635 -0.478647,-0.21979 -0.678897,-0.17095 -0.589354,0.14491 -0.786349,-0.15303 -0.804257,-0.63819 -0.02279,-0.60238 0.70169,-1.42292 1.312209,-1.57433 0.680525,-0.16768 1.354538,-0.35816 2.031808,-0.53888 0.0016,-0.11233 0.0049,-0.22304 0.0065,-0.33538 -0.397245,-0.0538 -0.796117,-0.10745 -1.385471,-0.18722 0.112335,-0.35004 0.138385,-0.75867 0.348402,-1.02405 0.436318,-0.55191 0.957294,-1.04195 1.471758,-1.5271 0.110708,-0.10421 0.353287,-0.057 0.519349,-0.11885 0.289793,-0.10909 0.56819,-0.24747 0.85147,-0.37446 -0.02442,-0.0765 -0.04722,-0.15466 -0.07163,-0.23118 -0.428178,-0.0326 -0.856355,-0.0651 -1.291045,-0.0977 0.245836,-1.72411 2.166936,-3.53287 4.172694,-3.96756 -0.06023,-1.06637 -1.256855,0.0765 -1.431056,-0.89706 1.157543,-1.45547 2.306947,-3.08353 4.342011,-3.74939 -0.0098,-0.0684 -0.01953,-0.13514 -0.0293,-0.20352 -0.262116,0.0228 -0.527488,0.0358 -0.787976,0.0733 -0.315842,0.0456 -0.628428,0.11233 -1.006136,0.0733 1.229179,-1.48966 1.740387,-3.74126 4.304566,-3.73801 0.0098,-0.0879 0.01953,-0.17583 0.02768,-0.26212 -0.433062,-0.13838 -0.866124,-0.27676 -1.310581,-0.4184 -0.04071,-1.84133 1.64433,-1.99273 2.919094,-2.55604 -0.05047,-0.0895 -0.100938,-0.17909 -0.153036,-0.26863 -0.354915,0.0195 -0.708203,0.0374 -1.304069,0.07 0.223043,-0.42981 0.398873,-0.78797 0.59261,-1.13638 0.102568,-0.18397 0.252349,-0.34189 0.353287,-0.52586 0.322354,-0.58122 0.781465,-0.90357 1.457106,-1.02567 0.512836,-0.0928 0.991483,-0.38096 1.484782,-0.58285 -0.02604,-0.0928 -0.0521,-0.18723 -0.07814,-0.28002 -0.56819,0.0374 -1.136379,0.0766 -1.715965,0.11559 -0.0065,-1.38222 0.867751,-2.18321 1.825045,-2.91583 0.143268,-0.11072 0.423293,-0.0244 0.621915,-0.0863 0.426549,-0.1335 0.841702,-0.30445 1.261739,-0.46074 -0.02117,-0.0944 -0.04233,-0.18886 -0.06186,-0.28329 h -1.259792 c -0.193738,-0.89704 0.180713,-1.65409 1.037068,-2.20112 0.698434,-0.44608 1.385471,-0.90681 2.100186,-1.37732 -0.270257,-0.15142 -0.56005,-0.31584 -0.851471,-0.47866 0.555166,-1.12497 1.03544,-2.23043 2.538131,-2.3802 -0.293049,-0.21654 -0.587726,-0.43307 -1.098934,-0.80914 0.664244,-0.55517 1.263367,-1.02568 1.818533,-1.54339 0.148153,-0.13839 0.214902,-0.42167 0.223042,-0.64309 0.05861,-1.5678 0.442831,-2.01552 1.953661,-2.40137 0.491671,-0.12536 0.941014,-0.42167 1.585722,-0.72286 -0.45097,0 -0.70169,0.0163 -0.949154,-0.005 -0.260488,-0.0228 -0.519348,-0.0797 -0.773325,-0.1221 0.122105,-1.4685 1.492924,-2.77257 3.348901,-3.23656 0.0114,-0.0733 0.02279,-0.14653 0.03419,-0.21978 -0.245836,-0.0244 -0.509581,-0.1156 -0.73588,-0.0586 -0.568189,0.14165 -0.674013,-0.12211 -0.608891,-0.59098 0.08466,-0.61215 0.973575,-1.53688 1.580836,-1.70945 0.504697,-0.14327 0.993112,-0.34515 1.488038,-0.52098 -0.0031,-0.0879 -0.0049,-0.17746 -0.0082,-0.26537 -0.428175,-0.0358 -0.854725,-0.0717 -1.284531,-0.10745 -0.07001,-1.33826 0.799377,-2.41766 2.085532,-2.65373 0.634939,-0.11721 1.242199,-0.38747 1.862489,-0.58772 l -0.0358,-0.22956 c -0.34352,0.0277 -0.68703,0.0863 -1.02893,0.0749 -0.24095,-0.008 -0.586093,-0.0374 -0.68703,-0.18886 -0.10908,-0.16443 -0.06024,-0.52097 0.04886,-0.72285 0.2035,-0.37445 0.47701,-0.72122 0.76681,-1.03707 0.35328,-0.38422 0.40376,-0.66262 0.01,-1.09731 -0.906821,-0.99962 -1.387095,-2.23043 -1.855974,-3.49542 -0.735881,-1.98623 -0.384222,-3.97895 -0.319102,-5.97658 0.06024,-1.83155 -0.234439,-3.57031 -1.219406,-5.15277 -0.130245,-0.21002 -0.180715,-0.47214 -0.268629,-0.70983 0.0521,-0.0766 0.104196,-0.15466 0.154665,-0.23118 0.757043,0.25885 1.548273,0.44609 2.264617,0.7896 1.613399,0.7717 2.713959,2.11646 3.498679,3.65985 0.28816,0.56494 0.15466,1.36594 0.14327,2.05786 -0.0179,1.05986 -0.20677,2.12623 -0.11071,3.17144 0.0521,0.56331 0.5454,1.08428 0.95078,1.59876 0.35003,-1.16732 -0.66424,-2.71397 1.13963,-3.33101 0.0977,0.14491 0.22468,0.33051 0.35166,0.51773 0.0782,0 0.1563,0 0.23444,-0.002 0.0358,-0.54703 0.07,-1.09243 0.10908,-1.69155 1.34966,-0.42166 2.73512,-0.97195 3.90407,0.72448 -0.1563,-0.84496 0.24746,-0.89868 0.73262,-0.81239 0.42004,0.0733 0.83194,0.18722 1.24872,0.27514 0.31259,0.0667 0.62843,0.12373 0.94427,0.18397 0.0439,-0.0781 0.0879,-0.15793 0.13187,-0.23607 -1.08916,-1.39849 -2.21904,-2.76932 -3.25611,-4.20525 -0.78146,-1.08266 -1.42616,-2.26462 -2.16856,-3.378203 -1.14452,-1.711083 -1.01427,-3.715218 -1.22103,-5.608639 -0.20351,-1.860862 -0.0782,-3.759169 -0.0439,-5.641195 0.0146,-0.757044 -0.20676,-1.162429 -0.93287,-1.551533 -2.21253,-1.181965 -3.48891,-3.080272 -3.81941,-5.602121 -0.36631,-2.808389 1.03869,-4.823915 2.9191,-6.629423 0.46236,-0.444458 1.0859,-0.763556 1.43268,-1.278019 0.28817,-0.42655 0.36143,-1.051721 0.38747,-1.595491 0.083,-1.774575 0.13187,-3.554034 0.11722,-5.330237 -0.003,-0.364684 -0.27351,-0.77658 -0.52585,-1.079398 -0.54865,-0.656104 -1.33175,-1.167312 -1.7176,-1.898306 -0.79286,-1.496179 -1.15103,-3.068876 -0.48353,-4.804378 0.7717,-2.007386 2.20764,-3.072132 4.202,-3.558919 0.12537,-0.03093 0.23932,-0.110708 0.35817,-0.167689 0.1628,0 0.32561,0 0.48842,0 z M 67.460475,214.52175 c 0.02604,0.42166 0.214902,0.91822 0.04233,1.1722 -0.405385,0.60075 -0.06675,0.86612 0.343518,1.08917 0.807514,0.43956 1.634563,0.85147 2.479522,1.208 0.249091,0.10582 0.610519,0.0472 0.888915,-0.0391 0.542141,-0.16931 1.048465,-0.46073 1.593862,-0.61377 1.527111,-0.42654 3.075387,-0.77984 4.600871,-1.21453 0.997995,-0.28491 1.960173,-0.69029 2.954911,-0.98823 2.048089,-0.61377 4.115713,-1.16242 6.158916,-1.79085 2.240197,-0.69029 4.455975,-1.45873 6.692917,-2.15716 1.562928,-0.48679 3.148649,-0.89706 4.714835,-1.37245 1.999244,-0.60563 3.991978,-1.23895 5.983088,-1.869 1.66061,-0.52424 3.31145,-1.07452 4.97532,-1.59061 1.25522,-0.3891 2.52348,-0.73587 3.78196,-1.11195 0.45748,-0.13676 0.85961,-0.31585 0.47865,-0.91497 -0.0489,-0.0766 0.0326,-0.23444 0.0684,-0.44283 0.38097,0.2035 0.69355,0.37119 1.19499,0.63819 0.1107,-1.07939 0.27188,-2.02367 0.28979,-2.97119 0.039,-2.12297 -0.0146,-4.24596 0.008,-6.36894 0.0423,-3.84871 0.13188,-7.69579 0.16118,-11.5445 0.0163,-2.04971 -0.0293,-4.09943 -0.10094,-6.14752 -0.0228,-0.6789 -0.0146,-1.49292 -0.37283,-1.99599 -0.52747,-0.74239 -1.36918,-1.26174 -2.23367,-2.01227 -0.21165,0.69518 -0.29142,1.25197 -0.54539,1.71271 -0.27515,0.50144 -0.71309,0.91334 -1.14616,1.44246 0.55517,0.13675 0.85636,0.21164 1.04847,0.25885 0.58935,1.96343 0.50143,3.61754 -1.8283,4.55691 0.45259,0.0554 0.64958,0.10583 0.84333,0.0993 0.90844,-0.0277 1.02241,0.083 1.06311,1.02242 0.0407,0.95892 0.17584,1.94389 -0.96217,2.51371 0.88566,0.52748 0.8531,1.36756 0.67075,1.99273 -0.16605,0.56493 -0.80589,0.99148 -1.29592,1.54665 q 1.20638,-0.12211 1.61828,0.92147 c 0.0489,0.12536 0.0635,0.27026 0.13187,0.3826 0.4119,0.68052 0.15141,1.1901 -0.41353,1.602 -0.27514,0.20024 -0.58935,0.34515 -0.97357,0.56493 1.72899,1.04684 1.70457,3.74777 0.31584,4.736 -0.19537,0.14001 -0.34841,0.34026 -0.44446,0.43794 0.39563,0.35166 0.8238,0.54866 0.90195,0.84008 0.14326,0.53074 0.24421,1.1836 0.0521,1.66061 -0.17096,0.42818 -0.76031,0.6903 -1.20151,1.0566 h 0.96217 c 0.15305,1.06313 -0.2849,1.85924 -1.09893,2.38184 -1.58409,1.02079 -3.25447,0.94428 -4.86624,0.1335 0.13838,0.35003 0.46562,0.76356 0.36794,0.998 -0.35166,0.8417 -1.29105,0.99311 -2.10019,0.54214 -0.44609,-0.24909 -0.99148,-0.32073 -1.70457,-0.53725 0.21979,0.5226 0.31911,0.75866 0.41516,0.98497 -1.20313,0.88891 -2.279274,0.80913 -3.851969,-0.35818 -0.0635,0.31258 -0.23607,0.64471 -0.138387,0.77333 0.4119,0.54702 0.07652,0.76844 -0.335377,1.00288 -0.537258,0.30607 -1.043581,0.45585 -1.675265,0.14977 -0.587727,-0.2849 -1.255226,-0.40374 -1.886911,-0.59586 -0.02931,0.0782 -0.06024,0.15466 -0.08954,0.23281 0.146525,0.20676 0.291421,0.41353 0.465623,0.66099 -1.313838,1.29593 -2.676516,1.20638 -4.16781,0.12699 0.02768,0.32886 -0.01791,0.53563 0.0635,0.62354 0.545397,0.59099 0.154665,0.82543 -0.323981,1.17382 -1.037069,0.7538 -2.012271,0.83356 -3.075388,0.0618 -0.307702,-0.22304 -0.770068,-0.38748 -0.897056,0.2035 0.135128,0.29631 0.323982,0.74402 0.198622,0.86613 -0.431433,0.41678 -0.924733,0.83192 -1.631306,0.66099 -0.745648,-0.18072 -1.494551,-0.33701 -2.232058,-0.50145 0,0.37283 0.08466,0.66425 -0.01628,0.85473 -0.278397,0.52423 -1.606886,0.78635 -2.142515,0.51121 -0.39236,-0.20188 -0.818909,-0.33539 -1.395239,-0.56494 0.538885,1.00126 0.472135,1.49293 -0.393989,1.72248 -0.914964,0.24258 -1.916215,0.14164 -2.827923,-0.52261 0.03907,0.33376 0.06837,0.58936 0.104195,0.89544 -0.587727,0.35328 -1.159172,0.93612 -1.782715,1.00125 -0.628428,0.0651 -1.310581,-0.38585 -2.017155,-0.62517 -0.112336,0.5747 -0.07163,1.19498 -0.794489,1.32197 -0.537257,0.0944 -1.098933,0.35818 -1.598745,0.26863 -0.742392,-0.1335 -1.440825,-0.51283 -2.077393,-0.75541 z m 75.163845,-19.81826 c -0.0358,0.1042 -0.0961,0.20188 -0.0977,0.30119 -0.0406,2.36556 -0.083,4.73111 -0.10908,7.09667 -0.0195,1.7876 -0.007,3.57683 -0.0277,5.36443 -0.0326,2.59022 -0.10908,5.18045 -0.11721,7.77068 -0.005,1.33827 0.14162,2.67815 0.12861,4.0164 -0.005,0.50959 -0.17258,1.07452 -0.43958,1.50432 -0.18722,0.30283 -0.65611,0.45586 -1.02405,0.61703 -0.92473,0.40051 -1.84457,0.83031 -2.80187,1.1315 -1.14289,0.3598 -2.33462,0.55842 -3.48403,0.89868 -2.17019,0.64146 -4.32247,1.34478 -6.4894,1.99925 -0.90846,0.27514 -1.8397,0.47376 -2.75141,0.73914 -1.31547,0.38421 -2.6293,0.77821 -3.93012,1.20963 -1.00776,0.33376 -1.98459,0.76519 -2.99398,1.0908 -1.13475,0.36468 -2.29067,0.65937 -3.43845,0.98334 -0.76355,0.21491 -1.52384,0.43795 -2.29228,0.63331 -0.85311,0.21654 -1.73062,0.34841 -2.56419,0.6203 -1.81201,0.5926 -3.57845,1.335 -5.40838,1.85923 -1.78434,0.51121 -3.62566,0.82379 -5.440942,1.23244 -0.08629,0.0195 -0.153037,0.11884 -0.31747,0.25397 0.874261,0.48352 1.704572,0.88403 2.473012,1.38221 0.77657,0.5047 1.56129,0.65447 2.44532,0.39074 1.19825,-0.35817 2.39813,-0.70332 3.60126,-1.04358 1.69154,-0.47702 3.39611,-0.91009 5.07626,-1.42292 1.29592,-0.39563 2.54952,-0.93125 3.84708,-1.32035 2.24182,-0.67401 4.51132,-1.25198 6.75152,-1.92924 1.26825,-0.38422 2.46976,-1.10382 3.75592,-1.28128 1.78923,-0.2491 3.31308,-1.21778 5.09417,-1.4978 1.71108,-0.26863 3.35216,-0.98986 5.01602,-1.53526 2.20927,-0.72449 4.41202,-1.47338 6.59686,-2.20438 0.0358,-0.30444 0.0651,-0.55842 0.0961,-0.82705 1.12336,0.51447 1.4327,0.35655 1.4506,-0.7896 0.0586,-3.73149 0.0765,-7.46298 0.13025,-11.19448 0.0293,-2.03343 0.10419,-4.06686 0.15791,-6.10193 0.0651,-2.45999 0.13676,-4.9216 0.18235,-7.38158 0.007,-0.3305 -0.003,-0.84007 -0.19862,-0.96706 -0.91009,-0.58448 -1.88854,-1.06312 -2.87514,-1.59875 z M 109.66931,117.4704 c -0.0797,-0.07 -0.15954,-0.14002 -0.23932,-0.21002 -0.25234,0.24746 -0.5047,0.49655 -0.75704,0.74402 -0.12536,0.12372 -0.24095,0.34188 -0.37771,0.35654 -0.8938,0.1042 -0.89055,0.73262 -0.83194,1.37733 0.0374,0.41515 0.22142,0.82868 0.20514,1.23731 -0.0602,1.55154 -0.23607,3.09819 -0.25723,4.64972 -0.0439,3.18447 -0.0212,6.37056 -0.0179,9.55503 0.003,3.49705 0.0423,6.99411 0.0179,10.48953 -0.0212,2.95816 -0.12861,5.91633 -0.16607,8.87451 -0.0293,2.30857 -0.0163,4.61715 -0.0163,6.92572 0,2.05135 -0.008,4.10431 0.0244,6.15566 0.0146,0.89054 0.12373,1.78109 0.18886,2.67163 0.0912,0.005 0.18397,0.01 0.27513,0.0146 0.0505,-0.28653 0.10257,-0.57308 0.14979,-0.85961 0.18234,-1.09893 0.30282,-2.22066 1.41641,-2.86862 0.49654,-0.28817 0.38909,-0.60564 -0.002,-0.90683 -0.26537,0.18885 -0.49493,0.35329 -0.70983,0.50469 -0.65936,-0.68215 -0.71145,-1.30569 -0.3598,-2.12297 0.35328,-0.82054 0.71146,-1.54502 1.51083,-2.01716 0.27677,-0.16442 0.44934,-0.50469 0.67076,-0.76518 -0.0635,-0.0798 -0.12699,-0.15955 -0.19049,-0.23932 -0.38096,0.27352 -0.74727,0.56981 -1.1494,0.80913 -0.23119,0.13676 -0.54214,0.28329 -0.77007,0.22956 -0.16117,-0.039 -0.36467,-0.42329 -0.34026,-0.6268 0.1856,-1.51246 0.12862,-3.13725 1.66224,-4.11571 0.12861,-0.083 0.17747,-0.29142 0.37934,-0.64634 -0.47214,0.13025 -0.73914,0.20514 -1.00614,0.2784 -0.2263,0.0602 -0.54865,0.23932 -0.65936,0.15141 -0.19374,-0.15466 -0.37934,-0.48516 -0.35166,-0.71635 0.057,-0.4819 0.22142,-0.96217 0.40864,-1.41477 0.14164,-0.34026 0.38748,-0.63819 0.59099,-0.95404 0.25885,-0.40213 0.97032,-0.50144 0.8303,-1.36593 -0.40212,0.24747 -0.71634,0.42004 -1.00776,0.62517 -0.4526,0.3191 -0.91822,0.20514 -0.87426,-0.2963 0.0749,-0.84659 0.26374,-1.73714 0.6447,-2.48929 0.31422,-0.62192 0.97195,-1.07126 1.47828,-1.59712 -0.0668,-0.0928 -0.13351,-0.18723 -0.20188,-0.28002 -0.47377,0.25885 -0.94916,0.51771 -1.46362,0.79937 -0.4819,-0.48841 -0.43958,-1.16731 -0.17095,-1.68992 0.43469,-0.84496 1.04847,-1.59875 1.602,-2.38021 0.17746,-0.25072 0.40213,-0.46888 0.60564,-0.70006 -0.0846,-0.0961 -0.16932,-0.19211 -0.25398,-0.28817 -0.38259,0.27026 -0.81728,0.4933 -1.13474,0.82542 -0.27678,0.28817 -0.49657,0.4526 -0.75868,0.0879 -0.24095,-0.33538 0.23607,-2.36231 0.57308,-2.67 0.47538,-0.43306 0.94426,-0.871 1.47501,-1.36106 -0.99148,-0.59423 -1.06637,0.65448 -1.799,0.60238 -0.72774,-2.04645 -0.21327,-3.77381 1.54014,-5.20487 -0.0766,-0.0489 -0.15141,-0.0977 -0.22793,-0.14653 -0.43632,0.27189 -0.87263,0.54377 -1.34151,0.83683 -0.79775,-1.69155 0.32235,-2.72537 1.41477,-3.76895 -0.083,-0.0602 -0.16606,-0.11884 -0.24909,-0.17908 -0.32398,0.26537 -0.64634,0.53074 -0.998,0.8189 -0.16768,-0.14326 -0.51446,-0.31421 -0.50144,-0.44608 0.14165,-1.29268 0.25072,-2.6179 1.58085,-3.43356 -0.0602,-0.0538 -0.12211,-0.10745 -0.18235,-0.16117 -0.35003,0.0618 -0.70006,0.12535 -1.25359,0.22303 0.0522,-0.94915 0.083,-1.8169 0.15303,-2.68139 0.0374,-0.4526 0.0895,-0.88403 0.69029,-1.04847 0.29956,-0.0814 0.52099,-0.45096 0.77658,-0.69029 -0.0635,-0.0895 -0.12698,-0.17908 -0.19048,-0.26863 -0.39073,0.21979 -0.78147,0.44121 -1.2422,0.70007 -0.37934,-0.95241 -0.197,-1.87714 -0.0618,-2.84258 0.15304,-1.09568 1.23732,-1.30406 1.7176,-2.10181 -0.34841,0.0228 -0.61704,0.14815 -0.88078,0.28653 -0.20025,0.10583 -0.51772,0.36306 -0.56819,0.31747 -0.20351,-0.18559 -0.47376,-0.48191 -0.44608,-0.70006 0.0993,-0.75541 0.24583,-1.51897 0.50469,-2.23368 0.21165,-0.58773 0.60564,-1.1087 0.91822,-1.66062 z m 30.71806,103.3747 c 0.61866,-0.58448 0.59749,-0.87589 -0.0798,-1.29105 -4.75716,-2.90607 -9.51432,-5.81052 -14.27149,-8.71495 -3.50844,-2.14252 -7.01689,-4.28503 -10.58069,-6.46336 -0.17421,0.267 -0.32724,0.49818 -0.52099,0.79449 8.5375,5.25697 16.99849,10.46836 25.45295,15.67324 z m 16.38796,9.6234 c 0.0212,-0.0912 0.0423,-0.18234 0.0635,-0.27351 -0.11235,-0.0716 -0.22468,-0.14326 -0.33702,-0.2149 -2.37857,-1.53199 -4.75716,-3.06236 -7.13249,-4.59762 -0.52422,-0.33864 -0.6154,0.0293 -0.74727,0.42329 2.44207,1.57921 4.85648,3.15679 7.29692,4.69368 0.20025,0.12536 0.56656,-0.0146 0.85636,-0.0325 z m -8.88916,-22.44918 c -0.17419,0.7782 -0.35328,1.41151 -0.44283,2.05623 -0.0326,0.23281 0.14979,0.49655 0.23444,0.74564 0.22142,-0.16444 0.57308,-0.28653 0.64146,-0.49818 0.24094,-0.7603 0.337,-1.5434 -0.43307,-2.30369 z m -8.12071,18.86585 c 1.27964,0.97031 2.32323,0.89543 2.81652,-0.18234 -0.92798,0.0602 -1.76318,0.11396 -2.81652,0.18234 z m -21.95427,7.48088 c -0.63168,-0.11395 -1.26174,-0.25071 -1.89668,-0.32724 -0.16117,-0.0195 -0.34677,0.15142 -0.51934,0.23445 0.0977,0.18071 0.15141,0.43306 0.30281,0.53237 0.81729,0.53889 1.42129,-0.22141 2.11484,-0.43958 z M 107.65705,113.81868 c -0.85147,0.93775 -0.87915,2.08228 -0.14816,2.61628 0.59424,-0.83031 0.11234,-1.65736 0.14816,-2.61628 z m 5.82516,121.94914 c -0.82379,-0.0993 -1.64758,-0.197 -2.49417,-0.29958 -0.0423,0.87753 0.76844,0.69845 1.24546,0.84334 0.47864,0.1449 1.03706,0.13024 1.24871,-0.54376 z m 17.79133,-6.16056 c 0.87589,0.94428 1.66875,0.12049 2.43068,0.19537 -0.74727,-0.3077 -1.48315,-0.73099 -2.43068,-0.19537 z m 16.8487,-17.66272 c -0.0635,-0.0406 -0.12699,-0.083 -0.19211,-0.12373 -0.18234,0.14164 -0.45912,0.24909 -0.52586,0.43306 -0.12862,0.35492 -0.15304,0.75217 -0.18886,1.13476 -0.0146,0.16117 0.0522,0.32886 0.0814,0.49493 0.16443,-0.0977 0.43469,-0.16607 0.47376,-0.3012 0.1563,-0.534 0.23932,-1.09079 0.35166,-1.63945 z m -38.49362,24.81638 c -0.81078,-0.13188 -1.55805,-0.25397 -2.31672,-0.37771 0.64795,0.9052 1.62967,1.10545 2.31672,0.37771 z m 38.55874,-20.46948 c -0.12699,-0.0538 -0.25235,-0.10745 -0.37933,-0.16117 -0.29142,0.43794 -0.58285,0.87588 -0.87265,1.31383 0.0326,0.0635 0.0668,0.12861 0.0993,0.19211 0.28002,-0.0505 0.70821,-0.01 0.80915,-0.17257 0.20676,-0.33375 0.23932,-0.77658 0.34188,-1.17382 z m 0.5747,-10.53349 c -0.33212,0.38585 -0.66425,0.7717 -1.11032,1.29105 0.32723,0.0585 0.60074,0.20188 0.76029,0.12048 0.49819,-0.25236 0.72937,-0.68379 0.35003,-1.41153 z m -44.0062,-92.88517 c 0.1742,0.0618 0.3484,0.12374 0.5226,0.1856 l 0.46888,-1.7241 -0.38259,-0.12373 c -0.2035,0.55353 -0.40539,1.1087 -0.60889,1.66223 z m 42.28046,108.37771 c 0.72938,0.29955 1.01917,0.17093 1.04358,-0.33375 0.0114,-0.22794 -0.10745,-0.46237 -0.16768,-0.69356 -0.25886,0.30608 -0.51935,0.61053 -0.87426,1.02893 z m -21.92169,10.66698 c -0.71146,0.0423 -1.19336,0.07 -1.79574,0.10582 0.59424,0.70658 1.15592,0.69518 1.79574,-0.10582 z m 2.15391,-0.94753 c 0.97845,0.42981 1.54827,0.25398 1.79737,-0.51772 -0.59262,0.17095 -1.12336,0.32399 -1.79737,0.51772 z m 21.05883,-27.68825 c 1.13638,0.0928 1.37408,-0.19862 0.92311,-1.16569 -0.30607,0.38748 -0.59098,0.74565 -0.92311,1.16569 z m -2.74489,22.95063 c 0.0538,-0.0781 0.10582,-0.15792 0.15955,-0.23607 -0.21328,-0.15629 -0.43469,-0.44609 -0.6382,-0.43469 -0.2328,0.013 -0.45097,0.29631 -0.674,0.46074 0.0439,0.07 0.0879,0.14001 0.13186,0.21002 h 1.02241 z m 2.91258,-2.22555 c -0.0456,-0.14327 -0.0912,-0.28491 -0.13513,-0.42818 -0.27351,0.0782 -0.57307,0.1156 -0.80588,0.26049 -0.0765,0.0472 0.0195,0.37283 0.0374,0.57145 0.3012,-0.13513 0.60239,-0.26863 0.90521,-0.40376 z"
       id="path1" /></g></svg>
